<svg xmlns="http://www.w3.org/2000/svg" width="512" height="512" viewBox="0 0 512 512"><path fill="#299cad" d="M440.704 391.771C454.312 375.362 462 354.216 462 332.679c0-35.26-19.864-65.01-49.435-83.766 4.186-13.053 6.395-26.594 6.395-40.27 0-90.207-87.645-155.312-184.479-155.312C137.037 53.331 50 118.929 50 208.644c0 31.822 11.358 63.066 31.465 87.309.849 28.41-15.719 69.156-30.643 98.842 39.998-7.295 96.866-23.416 122.654-39.357 15.134 3.717 29.826 6.027 44.007 7.1 17.877 50.588 80.211 89.32 160.944 69.494 17.455 10.789 55.943 21.699 83.016 26.639-10.101-20.094-21.314-47.672-20.739-66.9zM172.431 318.04c-34.595 20.203-65.042 28.264-65.042 28.264s10.299-27.762 14.588-59.699c-21.101-21.508-36.05-43.32-36.05-77.961 0-65.83 66.641-119.387 148.554-119.387 81.912 0 148.554 53.557 148.554 119.387-.001 68.14-78.317 144.476-210.604 109.396zm246.425 103.459s-19.577-5.182-41.82-18.172c-65.705 17.422-110.659-7.877-127.746-40.469 70.42-4.076 124.766-40.012 151.465-87.078 19.564 14.066 31.901 34.5 31.901 57.207 0 22.273-9.612 36.297-23.179 50.127 2.757 20.535 9.379 38.385 9.379 38.385z"/></svg>